<svg width="25" height="24" viewBox="0 0 25 24" fill="none" xmlns="http://www.w3.org/2000/svg">
<path d="M21.333 4.5H3.33301C2.93518 4.5 2.55365 4.65804 2.27235 4.93934C1.99104 5.22064 1.83301 5.60218 1.83301 6V18C1.83301 18.3978 1.99104 18.7794 2.27235 19.0607C2.55365 19.342 2.93518 19.5 3.33301 19.5H21.333C21.7308 19.5 22.1124 19.342 22.3937 19.0607C22.675 18.7794 22.833 18.3978 22.833 18V6C22.833 5.60218 22.675 5.22064 22.3937 4.93934C22.1124 4.65804 21.7308 4.5 21.333 4.5ZM19.683 6L12.333 11.085L4.98301 6H19.683ZM3.33301 18V6.6825L11.9055 12.615C12.0311 12.7021 12.1802 12.7488 12.333 12.7488C12.4858 12.7488 12.635 12.7021 12.7605 12.615L21.333 6.6825V18H3.33301Z" fill="white"/>
</svg>
